# Blender v2.83.0 OBJ File: ''
# www.blender.org
o Cylinder
v 0.000000 1.000000 -1.000000
v 0.000000 1.000000 1.000000
v 0.195090 0.980785 -1.000000
v 0.195090 0.980785 1.000000
v 0.382683 0.923880 -1.000000
v 0.382683 0.923880 1.000000
v 0.555570 0.831470 -1.000000
v 0.555570 0.831470 1.000000
v 0.707107 0.707107 -1.000000
v 0.707107 0.707107 1.000000
v 0.831470 0.555570 -1.000000
v 0.831470 0.555570 1.000000
v 0.923880 0.382683 -1.000000
v 0.923880 0.382683 1.000000
v 0.980785 0.195090 -1.000000
v 0.980785 0.195090 1.000000
v 1.000000 0.000000 -1.000000
v 1.000000 0.000000 1.000000
v 0.980785 -0.195090 -1.000000
v 0.980785 -0.195090 1.000000
v 0.923880 -0.382683 -1.000000
v 0.923880 -0.382683 1.000000
v 0.831470 -0.555570 -1.000000
v 0.831470 -0.555570 1.000000
v 0.707107 -0.707107 -1.000000
v 0.707107 -0.707107 1.000000
v 0.555570 -0.831470 -1.000000
v 0.555570 -0.831470 1.000000
v 0.382683 -0.923880 -1.000000
v 0.382683 -0.923880 1.000000
v 0.195090 -0.980785 -1.000000
v 0.195090 -0.980785 1.000000
v -0.000000 -1.000000 -1.000000
v -0.000000 -1.000000 1.000000
v -0.195091 -0.980785 -1.000000
v -0.195091 -0.980785 1.000000
v -0.382684 -0.923879 -1.000000
v -0.382684 -0.923879 1.000000
v -0.555571 -0.831469 -1.000000
v -0.555571 -0.831469 1.000000
v -0.707107 -0.707106 -1.000000
v -0.707107 -0.707106 1.000000
v -0.831470 -0.555570 -1.000000
v -0.831470 -0.555570 1.000000
v -0.923880 -0.382683 -1.000000
v -0.923880 -0.382683 1.000000
v -0.980785 -0.195089 -1.000000
v -0.980785 -0.195089 1.000000
v -1.000000 0.000001 -1.000000
v -1.000000 0.000001 1.000000
v -0.980785 0.195091 -1.000000
v -0.980785 0.195091 1.000000
v -0.923879 0.382684 -1.000000
v -0.923879 0.382684 1.000000
v -0.831469 0.555571 -1.000000
v -0.831469 0.555571 1.000000
v -0.707106 0.707108 -1.000000
v -0.707106 0.707108 1.000000
v -0.555569 0.831470 -1.000000
v -0.555569 0.831470 1.000000
v -0.382682 0.923880 -1.000000
v -0.382682 0.923880 1.000000
v -0.195089 0.980786 -1.000000
v -0.195089 0.980786 1.000000
v 0.000000 1.000000 -1.000000
v 0.000000 1.000000 1.000000
v 0.195090 0.980785 -1.000000
v 0.195090 0.980785 1.000000
v 0.382683 0.923880 -1.000000
v 0.382683 0.923880 1.000000
v 0.555570 0.831470 -1.000000
v 0.555570 0.831470 1.000000
v 0.707107 0.707107 -1.000000
v 0.707107 0.707107 1.000000
v 0.831470 0.555570 -1.000000
v 0.831470 0.555570 1.000000
v 0.923880 0.382683 -1.000000
v 0.923880 0.382683 1.000000
v 0.980785 0.195090 -1.000000
v 0.980785 0.195090 1.000000
v 1.000000 0.000000 -1.000000
v 1.000000 0.000000 1.000000
v 0.980785 -0.195090 -1.000000
v 0.980785 -0.195090 1.000000
v 0.923880 -0.382683 -1.000000
v 0.923880 -0.382683 1.000000
v 0.831470 -0.555570 -1.000000
v 0.831470 -0.555570 1.000000
v 0.707107 -0.707107 -1.000000
v 0.707107 -0.707107 1.000000
v 0.555570 -0.831470 -1.000000
v 0.555570 -0.831470 1.000000
v 0.382683 -0.923880 -1.000000
v 0.382683 -0.923880 1.000000
v 0.195090 -0.980785 -1.000000
v 0.195090 -0.980785 1.000000
v -0.000000 -1.000000 -1.000000
v -0.000000 -1.000000 1.000000
v -0.195091 -0.980785 -1.000000
v -0.195091 -0.980785 1.000000
v -0.382684 -0.923879 -1.000000
v -0.382684 -0.923879 1.000000
v -0.555571 -0.831469 -1.000000
v -0.555571 -0.831469 1.000000
v -0.707107 -0.707106 -1.000000
v -0.707107 -0.707106 1.000000
v -0.831470 -0.555570 -1.000000
v -0.831470 -0.555570 1.000000
v -0.923880 -0.382683 -1.000000
v -0.923880 -0.382683 1.000000
v -0.980785 -0.195089 -1.000000
v -0.980785 -0.195089 1.000000
v -1.000000 0.000001 -1.000000
v -1.000000 0.000001 1.000000
v -0.980785 0.195091 -1.000000
v -0.980785 0.195091 1.000000
v -0.923879 0.382684 -1.000000
v -0.923879 0.382684 1.000000
v -0.831469 0.555571 -1.000000
v -0.831469 0.555571 1.000000
v -0.707106 0.707108 -1.000000
v -0.707106 0.707108 1.000000
v -0.555569 0.831470 -1.000000
v -0.555569 0.831470 1.000000
v -0.382682 0.923880 -1.000000
v -0.382682 0.923880 1.000000
v -0.195089 0.980786 -1.000000
v -0.195089 0.980786 1.000000
vn 0.0000 1.0000 0.0000
vn 0.1951 0.9808 0.0000
vn 0.3827 0.9239 0.0000
vn 0.5556 0.8314 0.0000
vn 0.7071 0.7071 0.0000
vn 0.8314 0.5556 0.0000
vn 0.9239 0.3827 0.0000
vn 0.9808 0.1951 0.0000
vn 1.0000 0.0000 0.0000
vn 0.9808 -0.1951 0.0000
vn 0.9239 -0.3827 0.0000
vn 0.8314 -0.5556 0.0000
vn 0.7071 -0.7071 0.0000
vn 0.5556 -0.8314 0.0000
vn 0.3827 -0.9239 0.0000
vn 0.1951 -0.9808 0.0000
vn 0.0000 -1.0000 0.0000
vn -0.1951 -0.9808 0.0000
vn -0.3827 -0.9239 0.0000
vn -0.5556 -0.8314 0.0000
vn -0.7071 -0.7071 0.0000
vn -0.8314 -0.5556 0.0000
vn -0.9239 -0.3827 0.0000
vn -0.9808 -0.1951 0.0000
vn -1.0000 0.0000 0.0000
vn -0.9808 0.1951 0.0000
vn -0.9239 0.3827 0.0000
vn -0.8314 0.5556 0.0000
vn -0.7071 0.7071 0.0000
vn -0.5556 0.8314 0.0000
vn -0.3827 0.9239 0.0000
vn -0.1951 0.9808 0.0000
vn 0.0000 0.0000 1.0000
vn 0.0000 0.0000 -1.0000
s 1
f 2//1 3//2 1//1
f 4//2 5//3 3//2
f 6//3 7//4 5//3
f 8//4 9//5 7//4
f 10//5 11//6 9//5
f 12//6 13//7 11//6
f 14//7 15//8 13//7
f 16//8 17//9 15//8
f 18//9 19//10 17//9
f 20//10 21//11 19//10
f 22//11 23//12 21//11
f 24//12 25//13 23//12
f 26//13 27//14 25//13
f 28//14 29//15 27//14
f 30//15 31//16 29//15
f 32//16 33//17 31//16
f 34//17 35//18 33//17
f 36//18 37//19 35//18
f 38//19 39//20 37//19
f 40//20 41//21 39//20
f 42//21 43//22 41//21
f 44//22 45//23 43//22
f 46//23 47//24 45//23
f 48//24 49//25 47//24
f 50//25 51//26 49//25
f 52//26 53//27 51//26
f 54//27 55//28 53//27
f 56//28 57//29 55//28
f 58//29 59//30 57//29
f 60//30 61//31 59//30
f 62//31 63//32 61//31
f 64//32 1//1 63//32
f 118//33 102//33 86//33
f 79//34 95//34 111//34
f 2//1 4//2 3//2
f 4//2 6//3 5//3
f 6//3 8//4 7//4
f 8//4 10//5 9//5
f 10//5 12//6 11//6
f 12//6 14//7 13//7
f 14//7 16//8 15//8
f 16//8 18//9 17//9
f 18//9 20//10 19//10
f 20//10 22//11 21//11
f 22//11 24//12 23//12
f 24//12 26//13 25//13
f 26//13 28//14 27//14
f 28//14 30//15 29//15
f 30//15 32//16 31//16
f 32//16 34//17 33//17
f 34//17 36//18 35//18
f 36//18 38//19 37//19
f 38//19 40//20 39//20
f 40//20 42//21 41//21
f 42//21 44//22 43//22
f 44//22 46//23 45//23
f 46//23 48//24 47//24
f 48//24 50//25 49//25
f 50//25 52//26 51//26
f 52//26 54//27 53//27
f 54//27 56//28 55//28
f 56//28 58//29 57//29
f 58//29 60//30 59//30
f 60//30 62//31 61//31
f 62//31 64//32 63//32
f 64//32 2//1 1//1
f 70//33 68//33 66//33
f 66//33 128//33 70//33
f 128//33 126//33 70//33
f 126//33 124//33 122//33
f 122//33 120//33 118//33
f 118//33 116//33 114//33
f 114//33 112//33 118//33
f 112//33 110//33 118//33
f 110//33 108//33 106//33
f 106//33 104//33 102//33
f 102//33 100//33 98//33
f 98//33 96//33 94//33
f 94//33 92//33 90//33
f 90//33 88//33 86//33
f 86//33 84//33 82//33
f 82//33 80//33 86//33
f 80//33 78//33 86//33
f 78//33 76//33 74//33
f 74//33 72//33 70//33
f 126//33 122//33 70//33
f 122//33 118//33 70//33
f 110//33 106//33 102//33
f 102//33 98//33 86//33
f 98//33 94//33 86//33
f 94//33 90//33 86//33
f 78//33 74//33 86//33
f 74//33 70//33 86//33
f 118//33 110//33 102//33
f 70//33 118//33 86//33
f 127//34 65//34 67//34
f 67//34 69//34 71//34
f 71//34 73//34 75//34
f 75//34 77//34 71//34
f 77//34 79//34 71//34
f 79//34 81//34 83//34
f 83//34 85//34 79//34
f 85//34 87//34 79//34
f 87//34 89//34 95//34
f 89//34 91//34 95//34
f 91//34 93//34 95//34
f 95//34 97//34 99//34
f 99//34 101//34 103//34
f 103//34 105//34 111//34
f 105//34 107//34 111//34
f 107//34 109//34 111//34
f 111//34 113//34 115//34
f 115//34 117//34 119//34
f 119//34 121//34 123//34
f 123//34 125//34 127//34
f 127//34 67//34 71//34
f 95//34 99//34 111//34
f 99//34 103//34 111//34
f 111//34 115//34 127//34
f 115//34 119//34 127//34
f 119//34 123//34 127//34
f 127//34 71//34 79//34
f 79//34 87//34 95//34
f 127//34 79//34 111//34
